<svg width="155" height="120" viewBox="0 0 155 120" fill="none" xmlns="http://www.w3.org/2000/svg">
<path d="M96.0071 60.9655L67.2085 77.7013C66.0085 78.8967 64.8086 77.7013 64.8086 76.5059V43.0343C64.8086 41.8389 66.0085 40.6435 67.2085 41.8389L96.0071 58.5747C97.207 58.5747 97.207 60.9655 96.0071 60.9655Z" fill="white"/>
<path d="M93.5954 119.541H59.997C26.3987 119.541 0 93.2422 0 60.966C0 27.4945 27.5986 0 59.997 0H94.7953C128.394 0 154.792 27.4945 154.792 60.966C154.792 93.2422 127.194 119.541 93.5954 119.541ZM59.997 13.1495C33.5983 13.1495 11.9994 34.667 11.9994 60.966C11.9994 87.2651 33.5983 107.587 59.997 107.587H94.7953C121.194 107.587 142.793 87.2651 142.793 60.966C142.793 34.667 121.194 13.1495 94.7953 13.1495C93.5954 13.1495 59.997 13.1495 59.997 13.1495Z" fill="white"/>
</svg>
