<svg width="394" height="136" viewBox="0 0 394 136" fill="none" xmlns="http://www.w3.org/2000/svg">
<path d="M197.987 24.2608C198.808 24.2608 199.477 23.3886 199.477 22.3107V1.95015C199.477 0.882212 198.808 0 197.987 0C197.166 0 196.497 0.878896 196.497 1.95015V22.314C196.497 23.3886 197.166 24.2642 197.987 24.2642V24.2608Z" fill="black"/>
<path d="M178.711 25.6664C179.131 26.6581 180.095 27.1954 180.843 26.8737C181.598 26.5553 181.873 25.4807 181.445 24.4957L177.393 15.0169C176.969 14.0318 176.009 13.4879 175.254 13.8129C174.506 14.138 174.231 15.2125 174.651 16.1976L178.711 25.6664Z" fill="black"/>
<path d="M161.639 35.9252C162.414 36.6747 163.503 36.8008 164.076 36.2104C164.649 35.6234 164.48 34.5256 163.712 33.7827L150.121 20.6324C149.349 19.8862 148.25 19.7568 147.684 20.3472C147.111 20.9375 147.283 22.032 148.055 22.7849L161.643 35.9285L161.639 35.9252Z" fill="black"/>
<path d="M140.619 48.8382L149.015 52.7849C149.982 53.236 151.061 53.0038 151.406 52.2609C151.757 51.5147 151.243 50.5296 150.277 50.0753L141.88 46.1385C140.907 45.6841 139.827 45.9163 139.48 46.6625C139.135 47.4021 139.645 48.3871 140.619 48.8415V48.8382Z" fill="black"/>
<path d="M214.383 26.8791C215.131 27.2173 216.104 26.6966 216.551 25.7182L220.889 16.2063C221.336 15.2279 221.091 14.1467 220.346 13.8084C219.601 13.4668 218.624 13.9842 218.177 14.9626L213.84 24.4778C213.393 25.4496 213.638 26.5308 214.383 26.8757V26.8791Z" fill="black"/>
<path d="M234.338 35.9793L248.618 22.7627C249.409 22.0298 249.594 20.9419 249.038 20.3383C248.482 19.7347 247.383 19.8375 246.595 20.5705L232.311 33.7771C231.52 34.5101 231.335 35.5979 231.891 36.2015C232.447 36.8052 233.546 36.7023 234.334 35.976L234.338 35.9793Z" fill="black"/>
<path d="M243.452 52.2598C243.79 53.0027 244.859 53.2481 245.839 52.8103L254.59 48.8271C255.567 48.376 256.083 47.4076 255.749 46.6547C255.411 45.9118 254.332 45.6564 253.358 46.1042L244.614 50.0907C243.637 50.5385 243.111 51.5135 243.455 52.2598H243.452Z" fill="black"/>
<path d="M39.996 95.3858C37.9631 93.2864 35.5229 91.648 32.6656 90.4574C29.8049 89.2734 26.6629 88.6797 23.2328 88.6797C19.8026 88.6797 16.6606 89.27 13.8032 90.4574C10.9459 91.6513 8.49914 93.2897 6.47286 95.3858C4.43995 97.4852 2.85733 99.9793 1.71175 102.861C0.566168 105.744 0 108.904 0 112.34C0 115.776 0.566168 118.947 1.71175 121.852C2.85733 124.754 4.44326 127.255 6.47286 129.354C8.49914 131.454 10.9459 133.092 13.8032 134.25C16.6606 135.414 19.806 135.997 23.2328 135.997C26.6596 135.997 29.8049 135.414 32.6656 134.25C35.5229 133.089 37.9664 131.45 39.996 129.354C42.0289 127.255 43.6181 124.754 44.7637 121.852C45.9027 118.95 46.4754 115.776 46.4754 112.34C46.4754 108.904 45.9027 105.747 44.7637 102.861C43.6181 99.9793 42.0289 97.4852 39.996 95.3858ZM40.9561 120.164C40.0655 122.582 38.7974 124.681 37.142 126.462C35.4898 128.243 33.4933 129.636 31.1492 130.654C28.7918 131.676 26.1596 132.183 23.2361 132.183C20.3125 132.183 17.6836 131.679 15.3362 130.654C12.9854 129.636 10.979 128.243 9.3335 126.462C7.68134 124.681 6.40995 122.582 5.52262 120.164C4.63529 117.75 4.19163 115.136 4.19163 112.337C4.19163 109.538 4.63861 106.928 5.52262 104.513C6.40995 102.099 7.68134 99.9992 9.3335 98.2149C10.979 96.4339 12.9854 95.0343 15.3362 94.0161C17.6836 92.9979 20.3225 92.4938 23.2361 92.4938C26.1497 92.4938 28.7951 92.9979 31.1492 94.0161C33.4933 95.0343 35.4898 96.4306 37.142 98.2149C38.7974 99.9992 40.0655 102.095 40.9561 104.513C41.8435 106.928 42.2871 109.541 42.2871 112.337C42.2871 115.133 41.8402 117.746 40.9561 120.164Z" fill="black"/>
<path d="M90.8022 129.261H90.6698L63.3083 89.8203H57.9082V134.85H62.0965V95.4187H62.229L89.5904 134.85H94.9906V89.8203H90.8022V129.261Z" fill="black"/>
<path d="M145.882 105.024C145.396 103.372 144.637 101.641 143.598 99.8397C142.558 98.0322 141.141 96.3938 139.343 94.9113C137.545 93.4288 135.291 92.2049 132.579 91.2531C129.867 90.3012 126.57 89.8203 122.679 89.8203H108.773V134.85H122.679C126.57 134.85 129.867 134.379 132.579 133.423C135.291 132.468 137.545 131.248 139.343 129.765C141.141 128.283 142.561 126.638 143.598 124.837C144.637 123.036 145.396 121.308 145.882 119.656C146.372 118.005 146.677 116.509 146.803 115.172C146.929 113.836 146.991 112.891 146.991 112.34C146.991 111.789 146.932 110.844 146.803 109.508C146.677 108.174 146.372 106.679 145.882 105.027V105.024ZM141.154 120.701C140.045 123.053 138.545 124.989 136.645 126.518C134.734 128.047 132.49 129.182 129.914 129.928C127.334 130.667 124.56 131.036 121.593 131.036H112.955V93.6344H121.593C124.557 93.6344 127.334 94.0092 129.914 94.7521C132.493 95.4884 134.738 96.6293 136.645 98.1582C138.545 99.6805 140.045 101.624 141.154 103.976C142.254 106.327 142.8 109.113 142.8 112.34C142.8 115.567 142.254 118.353 141.154 120.704V120.701Z" fill="black"/>
<path d="M172.201 89.8203L152.58 134.85H156.967L162.043 122.897H185.855L190.742 134.85H195.443L176.521 89.8203H172.201ZM163.695 119.083L174.171 94.4005L184.329 119.083H163.695Z" fill="black"/>
<path d="M208.141 89.8203H203.949V134.85H229.092V131.032H208.141V89.8203Z" fill="black"/>
<path d="M241.922 89.8203H237.728V134.85H241.922V89.8203Z" fill="black"/>
<path d="M289.167 129.261H289.044L261.669 89.8203H256.279V134.85H260.461V95.4187H260.59L287.958 134.85H293.355V89.8203H289.167V129.261Z" fill="black"/>
<path d="M344.25 105.024C343.76 103.372 342.998 101.641 341.965 99.8397C340.926 98.0322 339.502 96.3938 337.711 94.9113C335.913 93.4288 333.652 92.2049 330.953 91.2531C328.242 90.3012 324.934 89.8203 321.044 89.8203H307.138V134.85H321.044C324.934 134.85 328.242 134.379 330.953 133.423C333.655 132.468 335.913 131.248 337.711 129.765C339.505 128.283 340.929 126.638 341.965 124.837C342.998 123.036 343.76 121.308 344.25 119.656C344.737 118.005 345.044 116.509 345.17 115.172C345.296 113.836 345.362 112.891 345.362 112.34C345.362 111.789 345.296 110.844 345.17 109.508C345.044 108.174 344.733 106.679 344.25 105.027V105.024ZM339.519 120.701C338.419 123.053 336.919 124.989 335.009 126.518C333.105 128.047 330.864 129.182 328.278 129.928C325.699 130.667 322.924 131.036 319.964 131.036H311.326V93.6344H319.964C322.924 93.6344 325.699 94.0092 328.278 94.7521C330.867 95.4884 333.105 96.6293 335.009 98.1582C336.919 99.6805 338.419 101.624 339.519 103.976C340.618 106.327 341.164 109.113 341.164 112.34C341.164 115.567 340.618 118.353 339.519 120.704V120.701Z" fill="black"/>
<path d="M370.569 89.8203L350.948 134.85H355.332L360.408 122.897H384.22L389.113 134.85H393.815L374.886 89.8203H370.569ZM362.063 119.083L372.539 94.4005L382.69 119.083H362.06H362.063Z" fill="black"/>
<path d="M228.023 69.4262H226.768C225.695 69.4262 224.811 70.1028 224.811 70.922C224.811 71.7412 225.692 72.4111 226.768 72.4111H392.049C393.119 72.4111 393.999 71.7445 393.999 70.922C393.999 70.0995 393.119 69.4262 392.049 69.4262H231.003C230.218 51.8649 215.709 37.8125 197.986 37.8125C180.263 37.8125 165.754 51.8649 164.97 69.4262H3.1812C2.10846 69.4262 1.23438 70.1028 1.23438 70.922C1.23438 71.7412 2.10515 72.4111 3.1812 72.4111H168.456C169.529 72.4111 170.413 71.7445 170.413 70.922C170.413 70.0995 169.532 69.4262 168.456 69.4262H167.953C168.734 53.5099 181.908 40.7974 197.989 40.7974C214.071 40.7974 227.245 53.5066 228.026 69.4262H228.023Z" fill="black"/>
</svg>
