<?xml version="1.0" encoding="utf-8"?>
<!-- Generator: Adobe Illustrator 28.2.0, SVG Export Plug-In . SVG Version: 6.00 Build 0)  -->
<svg version="1.1" id="Capa_1" xmlns="http://www.w3.org/2000/svg" xmlns:xlink="http://www.w3.org/1999/xlink" x="0px" y="0px"
	 viewBox="0 0 628.6 445" style="enable-background:new 0 0 628.6 445;" xml:space="preserve">
<style type="text/css">
	.st0{fill:#1F1D28;}
</style>
<g>
	<path class="st0" d="M231.2,349.2c0-12.3,2-23.6,6.1-34c4.1-10.3,9.8-19.3,17.1-26.8c7.3-7.5,16.1-13.4,26.3-17.7
		c10.3-4.2,21.5-6.4,33.8-6.4c12.3,0,23.6,2.1,33.9,6.4c10.3,4.3,19,10.1,26.3,17.7c7.3,7.5,13,16.5,17.1,26.8
		c4.1,10.3,6.1,21.7,6.1,34c0,12.3-2.1,23.7-6.1,34.1c-4.1,10.4-9.8,19.4-17.1,26.9c-7.3,7.5-16.1,13.4-26.3,17.5
		c-10.3,4.2-21.5,6.3-33.9,6.3c-12.3,0-23.6-2.1-33.8-6.3c-10.3-4.2-19-10-26.3-17.5c-7.3-7.5-13-16.5-17.1-26.9
		C233.2,372.9,231.2,361.5,231.2,349.2z M246.2,349.2c0,10,1.6,19.4,4.8,28c3.2,8.7,7.7,16.2,13.7,22.6c5.9,6.4,13.1,11.4,21.5,15
		c8.4,3.7,17.9,5.5,28.4,5.5c10.5,0,19.9-1.8,28.4-5.5c8.4-3.6,15.6-8.6,21.5-15c5.9-6.4,10.5-13.9,13.7-22.6c3.2-8.7,4.8-18,4.8-28
		c0-10-1.6-19.4-4.8-28c-3.2-8.7-7.7-16.2-13.7-22.6c-5.9-6.4-13.1-11.4-21.5-15c-8.5-3.6-17.9-5.5-28.4-5.5
		c-10.5,0-19.9,1.8-28.4,5.5c-8.4,3.6-15.6,8.7-21.5,15c-5.9,6.4-10.5,13.9-13.7,22.6C247.8,329.8,246.2,339.2,246.2,349.2z"/>
	<g>
		<g>
			<line class="st0" x1="8.7" y1="349.2" x2="185.9" y2="349.2"/>
			<path class="st0" d="M185.9,349.2c0,3.9-4.2,7-9.2,7H17.9c-5.1,0-9.2-3.2-9.2-7s4.1-7.1,9.2-7.1h158.8
				C181.8,342.2,185.9,345.4,185.9,349.2z"/>
			<line class="st0" x1="443.2" y1="349.2" x2="620.5" y2="349.2"/>
			<path class="st0" d="M620.5,349.2c0,3.9-4.2,7-9.2,7H452.5c-5.1,0-9.2-3.2-9.2-7s4.2-7.1,9.2-7.1h158.8
				C616.3,342.2,620.5,345.4,620.5,349.2z"/>
			<line class="st0" x1="316.4" y1="14.4" x2="316.4" y2="128.9"/>
			<path class="st0" d="M323.4,119.7c0,5.1-3.2,9.2-7,9.2c-3.9,0-7-4.1-7-9.2V23.6c0-5,3.2-9.2,7-9.2c3.9,0,7,4.2,7,9.2V119.7z"/>
			<line class="st0" x1="208.9" y1="79.6" x2="235.3" y2="141.3"/>
			<path class="st0" d="M235.3,141.3c-3.5,1.5-8.1-1-10.1-5.7L206,90.9c-2-4.6-0.7-9.7,2.9-11.3c3.6-1.5,8.1,1,10.1,5.7l19.2,44.7
				C240.1,134.7,238.8,139.8,235.3,141.3z"/>
			<line class="st0" x1="78.4" y1="110.4" x2="156" y2="185.3"/>
			<path class="st0" d="M156,185.3c-2.7,2.8-7.9,2.2-11.5-1.3l-64.3-62.1c-3.6-3.5-4.5-8.7-1.7-11.5c2.7-2.8,7.9-2.2,11.5,1.3
				l64.3,62.1C157.9,177.4,158.7,182.6,156,185.3z"/>
			<line class="st0" x1="39.7" y1="234.7" x2="96.1" y2="261.1"/>
			<path class="st0" d="M96.1,261.1c-1.6,3.5-6.7,4.6-11.3,2.5L45,245c-4.6-2.1-7-6.8-5.4-10.3c1.7-3.5,6.8-4.6,11.4-2.5l39.7,18.6
				C95.3,253,97.7,257.6,96.1,261.1z"/>
			<line class="st0" x1="422.1" y1="79.6" x2="393.9" y2="141.3"/>
			<path class="st0" d="M404.1,135.8c-2.1,4.6-6.7,7.1-10.3,5.5c-3.5-1.6-4.7-6.7-2.6-11.3l20.5-44.9c2.1-4.6,6.7-7.1,10.3-5.4
				c3.5,1.6,4.7,6.7,2.6,11.3L404.1,135.8z"/>
			<line class="st0" x1="557.8" y1="110.4" x2="476.7" y2="185.3"/>
			<path class="st0" d="M488.3,184.3c-3.7,3.4-8.9,3.9-11.5,1.1c-2.6-2.8-1.7-8,2-11.4l67.5-62.4c3.7-3.5,8.9-4,11.5-1.1
				c2.6,2.8,1.7,8-2,11.4L488.3,184.3z"/>
			<line class="st0" x1="589.5" y1="234.7" x2="531.4" y2="261.1"/>
			<path class="st0" d="M542.6,263.7c-4.6,2.1-9.7,0.9-11.3-2.6c-1.6-3.5,0.9-8.1,5.5-10.2l41.4-18.8c4.6-2.1,9.7-0.9,11.3,2.6
				c1.6,3.6-0.9,8.1-5.5,10.3L542.6,263.7z"/>
			<path class="st0" d="M472.7,349.2h-14.1c0-78.4-63.8-142.2-142.2-142.2s-142.2,63.8-142.2,142.2H160
				c0-86.2,70.1-156.3,156.3-156.3S472.7,263.1,472.7,349.2z"/>
		</g>
	</g>
</g>
</svg>
