<svg width="1191" height="411" viewBox="0 0 1191 411" fill="none" xmlns="http://www.w3.org/2000/svg">
<path d="M515.3 214C515.3 216.5 512.6 218.5 509.4 218.5H10.2C7.00002 218.5 4.30002 216.5 4.30002 214C4.30002 211.5 6.90002 209.5 10.2 209.5H509.4C512.7 209.4 515.3 211.5 515.3 214Z" fill="white"/>
<path d="M1190.6 214C1190.6 216.5 1187.9 218.5 1184.7 218.5H685.5C682.3 218.5 679.6 216.5 679.6 214C679.6 211.5 682.3 209.5 685.5 209.5H1184.7C1188 209.4 1190.6 211.5 1190.6 214Z" fill="white"/>
<path d="M603.1 67.4C603.1 70.6 601.1 73.3 598.6 73.3C596.1 73.3 594.1 70.7 594.1 67.4V6C594.1 2.8 596.1 0.0999985 598.6 0.0999985C601.1 0.0999985 603.1 2.8 603.1 6V67.4Z" fill="white"/>
<path d="M546.8 81.1C544.5 82.1 541.6 80.5 540.4 77.5L528.1 48.9C526.8 45.9 527.7 42.7 529.9 41.7C532.2 40.7 535.1 42.4 536.4 45.3L548.7 74C549.9 76.9 549.1 80.2 546.8 81.1Z" fill="white"/>
<path d="M496.2 109.3C494.5 111.1 491.2 110.7 488.8 108.4L447.8 68.8C445.5 66.5 445 63.2 446.7 61.5C448.4 59.7 451.7 60.1 454.1 62.4L495.2 102.1C497.4 104.2 497.9 107.5 496.2 109.3Z" fill="white"/>
<path d="M457.9 157.7C456.9 159.9 453.6 160.6 450.7 159.3L425.3 147.4C422.4 146 420.8 143.1 421.9 140.8C423 138.6 426.2 137.8 429.2 139.2L454.6 151.1C457.4 152.5 459 155.4 457.9 157.7Z" fill="white"/>
<path d="M654.7 77.7C653.4 80.6 650.4 82.2 648.2 81.2C646 80.2 645.2 76.9 646.6 74L659.7 45.3C661 42.3 664 40.8 666.2 41.8C668.5 42.8 669.2 46.1 667.8 49L654.7 77.7Z" fill="white"/>
<path d="M708.4 108.6C706 110.8 702.7 111.1 701 109.3C699.3 107.5 699.9 104.2 702.3 102L745.4 62.2C747.8 60 751.1 59.7 752.8 61.5C754.5 63.3 753.9 66.6 751.5 68.8L708.4 108.6Z" fill="white"/>
<path d="M743.1 159.3C740.1 160.6 736.9 159.9 735.9 157.6C734.9 155.3 736.5 152.4 739.4 151.1L765.8 139.1C768.7 137.8 772 138.5 773 140.8C774 143.1 772.5 146 769.5 147.3L743.1 159.3Z" fill="white"/>
<path d="M0.600006 338.8C0.600006 328.4 2.30001 318.9 5.80001 310.2C9.30001 301.5 14 294 20.2 287.7C26.3 281.4 33.7 276.4 42.3 272.8C50.9 269.2 60.4 267.4 70.8 267.4C81.2 267.4 90.6 269.2 99.3 272.8C107.9 276.4 115.3 281.3 121.4 287.7C127.5 294 132.3 301.5 135.8 310.2C139.2 318.9 141 328.4 141 338.8C141 349.2 139.3 358.7 135.8 367.5C132.3 376.3 127.5 383.8 121.4 390.1C115.3 396.4 107.9 401.4 99.3 404.9C90.7 408.4 81.2 410.2 70.8 410.2C60.5 410.2 51 408.4 42.3 404.9C33.7 401.4 26.3 396.5 20.2 390.1C14.1 383.8 9.30001 376.2 5.80001 367.5C2.30001 358.8 0.600006 349.2 0.600006 338.8ZM13.3 338.8C13.3 347.2 14.6 355.1 17.3 362.4C20 369.7 23.8 376 28.8 381.4C33.8 386.8 39.8 391 46.9 394C54 397.1 62 398.6 70.8 398.6C79.6 398.6 87.6 397.1 94.7 394C101.8 390.9 107.8 386.7 112.8 381.4C117.8 376 121.6 369.7 124.3 362.4C127 355.1 128.3 347.2 128.3 338.8C128.3 330.4 127 322.5 124.3 315.2C121.6 307.9 117.8 301.6 112.8 296.2C107.8 290.8 101.8 286.6 94.7 283.5C87.6 280.4 79.6 278.9 70.8 278.9C62 278.9 54 280.4 46.9 283.5C39.8 286.6 33.7 290.8 28.8 296.2C23.8 301.6 20 307.9 17.3 315.2C14.6 322.5 13.3 330.4 13.3 338.8Z" fill="white"/>
<path d="M175.5 270.9H191.8L274.4 389.8H274.8V270.9H287.5V406.7H271.2L188.6 287.8H188.2V406.7H175.5V270.9Z" fill="white"/>
<path d="M329.2 270.9H371.2C383 270.9 392.9 272.3 401.1 275.2C409.3 278.1 416.1 281.8 421.5 286.2C426.9 290.7 431.2 295.6 434.4 301.1C437.5 306.5 439.8 311.8 441.3 316.7C442.8 321.7 443.7 326.2 444.1 330.2C444.5 334.2 444.7 337.1 444.7 338.7C444.7 340.4 444.5 343.2 444.1 347.2C443.7 351.2 442.8 355.7 441.3 360.7C439.8 365.7 437.5 370.9 434.4 376.3C431.3 381.7 427 386.7 421.5 391.2C416.1 395.7 409.3 399.3 401.1 402.2C392.9 405.1 383 406.5 371.2 406.5H329.2V270.9ZM341.8 395.2H367.9C376.9 395.2 385.2 394.1 393 391.9C400.8 389.6 407.6 386.2 413.3 381.6C419 377 423.6 371.1 426.9 364.1C430.2 357 431.9 348.6 431.9 338.9C431.9 329.2 430.2 320.8 426.9 313.7C423.5 306.6 419 300.7 413.3 296.2C407.5 291.6 400.8 288.2 393 285.9C385.2 283.7 376.8 282.5 367.9 282.5H341.8V395.2Z" fill="white"/>
<path d="M520.7 270.9H533.8L591 406.7H576.8L562 370.7H490L474.7 406.7H461.4L520.7 270.9ZM526.7 284.7L495 359.2H557.3L526.7 284.7Z" fill="white"/>
<path d="M616.6 270.9H629.3V395.2H692.6V406.7H616.7V270.9H616.6Z" fill="white"/>
<path d="M718.6 270.9H731.3V406.7H718.6V270.9Z" fill="white"/>
<path d="M774.7 270.9H791L873.7 389.8H874.1V270.9H886.8V406.7H870.5L787.8 287.8H787.4V406.7H774.8V270.9H774.7Z" fill="white"/>
<path d="M928.3 270.9H970.3C982.1 270.9 992 272.3 1000.2 275.2C1008.4 278.1 1015.2 281.8 1020.6 286.2C1026 290.7 1030.3 295.6 1033.5 301.1C1036.6 306.5 1038.9 311.8 1040.4 316.7C1041.9 321.7 1042.8 326.2 1043.2 330.2C1043.6 334.2 1043.8 337.1 1043.8 338.7C1043.8 340.4 1043.6 343.2 1043.2 347.2C1042.8 351.2 1041.9 355.7 1040.4 360.7C1038.9 365.7 1036.6 370.9 1033.5 376.3C1030.4 381.7 1026.1 386.7 1020.6 391.2C1015.2 395.7 1008.3 399.3 1000.2 402.2C992 405.1 982 406.5 970.3 406.5H928.3V270.9ZM940.9 395.2H967C975.9 395.2 984.3 394.1 992.1 391.9C999.9 389.6 1006.7 386.2 1012.4 381.6C1018.2 377 1022.7 371.1 1026 364.1C1029.3 357 1031 348.6 1031 338.9C1031 329.2 1029.3 320.8 1026 313.7C1022.7 306.6 1018.1 300.7 1012.4 296.2C1006.6 291.6 999.9 288.2 992.1 285.9C984.3 283.7 975.9 282.5 967 282.5H940.9V395.2Z" fill="white"/>
<path d="M1119.9 270.9H1132.9L1190.1 406.7H1175.9L1161.1 370.7H1089.2L1073.9 406.7H1060.7L1119.9 270.9ZM1125.8 284.7L1094.2 359.1H1156.5L1125.8 284.7Z" fill="white"/>
<path d="M698.4 214H689.4C689.4 163.9 648.7 123.2 598.6 123.2C548.5 123.2 507.8 163.9 507.8 214H498.8C498.8 159 543.6 114.2 598.6 114.2C653.7 114.1 698.4 158.9 698.4 214Z" fill="white"/>
</svg>
