<svg width="141" height="67" viewBox="0 0 141 67" fill="none" xmlns="http://www.w3.org/2000/svg">
<path d="M45.7469 65.3494C45.7469 66.1051 44.943 66.7 43.9622 66.7H2.36858C1.38783 66.7 0.600006 66.089 0.600006 65.3494C0.600006 64.6099 1.38783 63.9828 2.36858 63.9828H43.9622C44.943 63.9828 45.7469 64.5938 45.7469 65.3494Z" fill="#1F1D29"/>
<path d="M140.575 65.3494C140.575 66.1051 139.771 66.7 138.79 66.7H97.1964C96.2156 66.7 95.4117 66.089 95.4117 65.3494C95.4117 64.6099 96.2156 63.9828 97.1964 63.9828H138.79C139.771 63.9828 140.575 64.5938 140.575 65.3494Z" fill="#1F1D29"/>
<path d="M72.2755 21.0386C72.2755 22.0194 71.6646 22.8072 70.9089 22.8072C70.1532 22.8072 69.5423 22.0194 69.5423 21.0386V2.46859C69.5423 1.48783 70.1532 0.700012 70.9089 0.700012C71.6646 0.700012 72.2755 1.50391 72.2755 2.46859V21.0386Z" fill="#1F1D29"/>
<path d="M55.2651 25.1867C54.5737 25.4761 53.7055 24.9938 53.3196 24.0934L49.6217 15.4596C49.2358 14.5592 49.4931 13.5785 50.1683 13.2891C50.8597 12.9996 51.7279 13.4981 52.1138 14.3824L55.8117 23.0162C56.2137 23.9166 55.9564 24.8973 55.2651 25.1867Z" fill="#1F1D29"/>
<path d="M39.9588 33.692C39.4443 34.2386 38.4475 34.11 37.7401 33.4347L25.3279 21.4566C24.6205 20.7653 24.4597 19.7685 24.9902 19.2379C25.5047 18.6912 26.5177 18.8199 27.209 19.4951L39.6212 31.4893C40.3286 32.1646 40.4733 33.1614 39.9588 33.692Z" fill="#1F1D29"/>
<path d="M28.3827 48.339C28.0611 49.0143 27.0804 49.2233 26.1961 48.8213L18.5269 45.2199C17.6426 44.8018 17.1764 43.9015 17.4819 43.2423C17.8034 42.567 18.7842 42.3419 19.6685 42.7599L27.3376 46.3453C28.238 46.7633 28.7043 47.6476 28.3827 48.339Z" fill="#1F1D29"/>
<path d="M87.8712 24.1417C87.4692 25.026 86.5688 25.5083 85.8936 25.2028C85.2183 24.8813 84.9932 23.9005 85.3952 23.0162L89.3503 14.3502C89.7523 13.4498 90.6526 12.9836 91.3279 13.3051C92.0032 13.6106 92.2283 14.5914 91.8263 15.4917L87.8712 24.1417Z" fill="#1F1D29"/>
<path d="M104.11 33.499C103.386 34.1582 102.39 34.2547 101.875 33.708C101.361 33.1614 101.537 32.1646 102.261 31.5054L115.3 19.463C116.024 18.7877 117.02 18.7073 117.535 19.254C118.049 19.8006 117.873 20.7974 117.149 21.4566L104.11 33.499Z" fill="#1F1D29"/>
<path d="M114.609 48.8374C113.708 49.2393 112.744 49.0143 112.422 48.339C112.101 47.6637 112.583 46.7633 113.483 46.3614L121.474 42.7278C122.358 42.3258 123.355 42.5509 123.661 43.2262C123.966 43.9175 123.5 44.8018 122.6 45.2038L114.609 48.8374Z" fill="#1F1D29"/>
<path d="M101.103 65.3495H98.3861C98.3861 50.204 86.0704 37.8883 70.925 37.8883C55.7796 37.8883 43.4639 50.204 43.4639 65.3495H40.7467C40.7467 48.7088 54.2843 35.1711 70.925 35.1711C87.5657 35.1711 101.103 48.7088 101.103 65.3495Z" fill="#1F1D29"/>
</svg>
