<svg width="66" height="46" viewBox="0 0 66 46" fill="none" xmlns="http://www.w3.org/2000/svg">
<path d="M24.0029 36.1177C24.0029 34.7908 24.2187 33.5718 24.661 32.4498C25.1033 31.3387 25.7182 30.3678 26.5057 29.5587C27.2932 28.7496 28.2426 28.1131 29.3429 27.6492C30.4541 27.1961 31.6623 26.9588 32.9892 26.9588C34.3161 26.9588 35.5351 27.1854 36.6463 27.6492C37.7574 28.1131 38.696 28.7388 39.4835 29.5587C40.271 30.3678 40.8859 31.3387 41.3282 32.4498C41.7705 33.561 41.9863 34.7908 41.9863 36.1177C41.9863 37.4446 41.7597 38.6744 41.3282 39.7963C40.8859 40.9183 40.271 41.8892 39.4835 42.6983C38.696 43.5074 37.7467 44.1438 36.6463 44.5861C35.5351 45.0392 34.3269 45.2658 32.9892 45.2658C31.6623 45.2658 30.4433 45.0392 29.3429 44.5861C28.2318 44.1331 27.2932 43.5074 26.5057 42.6983C25.7182 41.8892 25.1033 40.9183 24.661 39.7963C24.2187 38.6744 24.0029 37.4446 24.0029 36.1177ZM25.6211 36.1177C25.6211 37.1965 25.7937 38.2105 26.1389 39.1383C26.4841 40.0768 26.9696 40.8859 27.6169 41.5763C28.2534 42.2668 29.0301 42.8061 29.9363 43.1945C30.8424 43.5937 31.8673 43.7878 33 43.7878C34.1327 43.7878 35.1468 43.5937 36.0637 43.1945C36.9699 42.8061 37.7467 42.2668 38.3831 41.5763C39.0196 40.8859 39.5159 40.0768 39.8611 39.1383C40.2063 38.1997 40.3789 37.1965 40.3789 36.1177C40.3789 35.0389 40.2063 34.0248 39.8611 33.0971C39.5159 32.1586 39.0304 31.3495 38.3831 30.659C37.7467 29.9686 36.9699 29.4292 36.0637 29.0409C35.1468 28.6525 34.1327 28.4475 33 28.4475C31.8673 28.4475 30.8532 28.6417 29.9363 29.0409C29.0301 29.4292 28.2534 29.9794 27.6169 30.659C26.9804 31.3495 26.4841 32.1586 26.1389 33.0971C25.7937 34.0248 25.6211 35.0389 25.6211 36.1177Z" fill="#F6F0EC"/>
<path d="M19.1161 36.1177C19.1161 36.5384 18.663 36.8728 18.1236 36.8728H0.992481C0.442301 36.8728 0 36.5276 0 36.1177C0 35.7077 0.442301 35.3517 0.992481 35.3517H18.1236C18.6738 35.3625 19.1161 35.7077 19.1161 36.1177Z" fill="#F6F0EC"/>
<path d="M66 36.1177C66 36.5384 65.5469 36.8728 65.0075 36.8728H47.8764C47.3262 36.8728 46.8839 36.5276 46.8839 36.1177C46.8839 35.7077 47.337 35.3517 47.8764 35.3517H65.0075C65.5469 35.3625 66 35.7077 66 36.1177Z" fill="#F6F0EC"/>
<path d="M33.9493 11.3596C33.9493 11.9098 33.6041 12.3521 33.1942 12.3521C32.7735 12.3521 32.439 11.9098 32.439 11.3596V0.992481C32.439 0.453089 32.7842 0 33.1942 0C33.6149 0 33.9493 0.453089 33.9493 0.992481V11.3596Z" fill="#F6F0EC"/>
<path d="M24.4452 13.6898C24.0677 13.8516 23.5714 13.5819 23.3557 13.0749L21.2844 8.2527C21.0687 7.75646 21.2089 7.20628 21.5973 7.03367C21.9856 6.87186 22.4711 7.14155 22.6868 7.64858L24.7581 12.4707C24.9631 12.9778 24.8228 13.528 24.4452 13.6898Z" fill="#F6F0EC"/>
<path d="M15.8905 18.4364C15.5992 18.7385 15.0382 18.6737 14.6499 18.2962L7.7133 11.5969C7.32494 11.2194 7.22785 10.6584 7.52991 10.3563C7.82118 10.0543 8.38215 10.119 8.77051 10.4966L15.7071 17.1958C16.0955 17.5842 16.1818 18.1451 15.8905 18.4364Z" fill="#F6F0EC"/>
<path d="M9.42857 26.6136C9.25597 26.9912 8.70579 27.1098 8.20955 26.8833L3.91599 24.8768C3.41974 24.6502 3.16084 24.1432 3.33344 23.7656C3.51683 23.388 4.06701 23.2694 4.56326 23.4959L8.84603 25.5025C9.34227 25.7398 9.60118 26.236 9.42857 26.6136Z" fill="#F6F0EC"/>
<path d="M42.6551 13.0964C42.4286 13.5927 41.9323 13.8624 41.544 13.6898C41.1664 13.5172 41.0369 12.967 41.2635 12.4707L43.475 7.627C43.7015 7.13076 44.1978 6.86106 44.5861 7.04446C44.9637 7.21706 45.0932 7.76724 44.8666 8.26348L42.6551 13.0964Z" fill="#F6F0EC"/>
<path d="M51.7385 18.3285C51.3393 18.6953 50.7784 18.7493 50.4979 18.4472C50.2174 18.1451 50.3145 17.5842 50.7136 17.2174L57.9954 10.4858C58.3946 10.1082 58.9555 10.0543 59.236 10.3671C59.5165 10.6692 59.4194 11.2301 59.0203 11.5969L51.7385 18.3285Z" fill="#F6F0EC"/>
<path d="M57.5963 26.8941C57.1 27.1206 56.5499 26.9912 56.3772 26.6136C56.2046 26.236 56.4743 25.7398 56.9706 25.5132L61.4367 23.4851C61.933 23.2586 62.4832 23.388 62.6558 23.7656C62.8284 24.154 62.5587 24.6394 62.0624 24.8768L57.5963 26.8941Z" fill="#F6F0EC"/>
<path d="M50.0556 36.1177H48.5345C48.5345 27.66 41.6518 20.7774 33.1942 20.7774C24.7365 20.7774 17.8539 27.66 17.8539 36.1177H16.322C16.322 26.8186 23.8843 19.2563 33.1834 19.2563C42.4825 19.2563 50.0556 26.8294 50.0556 36.1177Z" fill="#F6F0EC"/>
</svg>
