<svg width="24" height="17" viewBox="0 0 24 17" fill="none" xmlns="http://www.w3.org/2000/svg">
<path d="M0 0.753205C0.197153 0.167175 0.628309 0 1.21608 0C8.40939 0.00918543 15.6027 0.00551126 22.7979 0.00551126C22.8845 0.00551126 22.9692 0.00367417 23.0558 0.00551126C23.5938 0.0293934 23.9642 0.389462 23.9974 0.918543C24.0324 1.48988 23.7173 1.89771 23.1719 1.98038C23.0484 1.99875 22.9232 2.00059 22.7979 2.00059C15.5972 2.00059 8.39465 2.00059 1.19397 2.00059C0.490118 2.00059 0.26717 1.85362 0.00184255 1.21799V0.751368L0 0.753205Z" fill="white"/>
<path d="M0 8.23222C0.197153 7.64619 0.628309 7.47718 1.21608 7.47902C8.40939 7.4882 15.6027 7.48453 22.7979 7.48453C22.8845 7.48453 22.9692 7.48269 23.0558 7.48453C23.5938 7.50841 23.9642 7.86848 23.9974 8.39756C24.0324 8.96889 23.7173 9.37673 23.1719 9.4594C23.0484 9.47777 22.9232 9.4796 22.7979 9.4796C15.5972 9.4796 8.39465 9.4796 1.19397 9.4796C0.490118 9.4796 0.26717 9.33264 0.00184255 8.69701V8.23039L0 8.23222Z" fill="white"/>
<path d="M0 15.7098C0.197153 15.1237 0.628309 14.9547 1.21608 14.9566C8.40939 14.9657 15.6027 14.9621 22.7979 14.9621C22.8845 14.9621 22.9692 14.9602 23.0558 14.9621C23.5938 14.986 23.9642 15.346 23.9974 15.8751C24.0324 16.4464 23.7173 16.8543 23.1719 16.9369C23.0484 16.9553 22.9232 16.9571 22.7979 16.9571C15.5972 16.9571 8.39465 16.9571 1.19397 16.9571C0.490118 16.9571 0.26717 16.8102 0.00184255 16.1745V15.7079L0 15.7098Z" fill="white"/>
</svg>
