<svg width="1200" height="445" viewBox="0 0 1200 445" fill="none" xmlns="http://www.w3.org/2000/svg">
<path d="M522.3 226C522.3 228.5 519.6 230.5 516.4 230.5H17.2C14 230.5 11.3 228.5 11.3 226C11.3 223.5 13.9 221.5 17.2 221.5H516.4C519.7 221.4 522.3 223.5 522.3 226Z" fill="#FCA3BB"/>
<path d="M1197.6 226C1197.6 228.5 1194.9 230.5 1191.7 230.5H692.5C689.3 230.5 686.6 228.5 686.6 226C686.6 223.5 689.3 221.5 692.5 221.5H1191.7C1195 221.4 1197.6 223.5 1197.6 226Z" fill="#FCA3BB"/>
<path d="M610.1 79.4001C610.1 82.6001 608.1 85.3001 605.6 85.3001C603.1 85.3001 601.1 82.7001 601.1 79.4001V18.0001C601.1 14.8001 603.1 12.1001 605.6 12.1001C608.1 12.1001 610.1 14.8001 610.1 18.0001V79.4001Z" fill="#FCA3BB"/>
<path d="M553.8 93.1C551.5 94.1 548.6 92.5 547.4 89.5L535.1 60.9C533.8 57.9 534.7 54.7 536.9 53.7C539.2 52.7 542.1 54.4 543.4 57.3L555.7 86C556.9 88.9 556.1 92.2 553.8 93.1Z" fill="#FCA3BB"/>
<path d="M503.2 121.3C501.5 123.1 498.2 122.7 495.8 120.4L454.8 80.8C452.5 78.5 452 75.2 453.7 73.5C455.4 71.7 458.7 72.1 461.1 74.4L502.2 114.1C504.4 116.2 504.9 119.5 503.2 121.3Z" fill="#FCA3BB"/>
<path d="M464.9 169.7C463.9 171.9 460.6 172.6 457.7 171.3L432.3 159.4C429.4 158 427.8 155.1 428.9 152.8C430 150.6 433.2 149.8 436.2 151.2L461.6 163.1C464.4 164.5 466 167.4 464.9 169.7Z" fill="#FCA3BB"/>
<path d="M661.7 89.7002C660.4 92.6002 657.4 94.2002 655.2 93.2002C653 92.2002 652.2 88.9002 653.6 86.0002L666.7 57.3002C668 54.3002 671 52.8002 673.2 53.8002C675.5 54.8002 676.2 58.1002 674.8 61.0002L661.7 89.7002Z" fill="#FCA3BB"/>
<path d="M715.4 120.6C713 122.8 709.7 123.1 708 121.3C706.3 119.5 706.9 116.2 709.3 114L752.4 74.2C754.8 72 758.1 71.7001 759.8 73.5001C761.5 75.3001 760.9 78.6001 758.5 80.8001L715.4 120.6Z" fill="#FCA3BB"/>
<path d="M750.1 171.3C747.1 172.6 743.9 171.9 742.9 169.6C741.9 167.3 743.5 164.4 746.4 163.1L772.8 151.1C775.7 149.8 779 150.5 780 152.8C781 155.1 779.5 158 776.5 159.3L750.1 171.3Z" fill="#FCA3BB"/>
<path d="M7.59998 350.8C7.59998 340.4 9.29998 330.9 12.8 322.2C16.3 313.5 21 306 27.2 299.7C33.3 293.4 40.7 288.4 49.3 284.8C57.9 281.2 67.4 279.4 77.8 279.4C88.2 279.4 97.6 281.2 106.3 284.8C114.9 288.4 122.3 293.3 128.4 299.7C134.5 306 139.3 313.5 142.8 322.2C146.2 330.9 148 340.4 148 350.8C148 361.2 146.3 370.7 142.8 379.5C139.3 388.3 134.5 395.8 128.4 402.1C122.3 408.4 114.9 413.4 106.3 416.9C97.7 420.4 88.2 422.2 77.8 422.2C67.5 422.2 58 420.4 49.3 416.9C40.7 413.4 33.3 408.5 27.2 402.1C21.1 395.8 16.3 388.2 12.8 379.5C9.29998 370.8 7.59998 361.2 7.59998 350.8ZM20.3 350.8C20.3 359.2 21.6 367.1 24.3 374.4C27 381.7 30.8 388 35.8 393.4C40.8 398.8 46.8 403 53.9 406C61 409.1 69 410.6 77.8 410.6C86.6 410.6 94.6 409.1 101.7 406C108.8 402.9 114.8 398.7 119.8 393.4C124.8 388 128.6 381.7 131.3 374.4C134 367.1 135.3 359.2 135.3 350.8C135.3 342.4 134 334.5 131.3 327.2C128.6 319.9 124.8 313.6 119.8 308.2C114.8 302.8 108.8 298.6 101.7 295.5C94.6 292.4 86.6 290.9 77.8 290.9C69 290.9 61 292.4 53.9 295.5C46.8 298.6 40.7 302.8 35.8 308.2C30.8 313.6 27 319.9 24.3 327.2C21.6 334.5 20.3 342.4 20.3 350.8Z" fill="#FCA3BB"/>
<path d="M182.5 282.9H198.8L281.4 401.8H281.8V282.9H294.5V418.7H278.2L195.6 299.8H195.2V418.7H182.5V282.9Z" fill="#FCA3BB"/>
<path d="M336.2 282.9H378.2C390 282.9 399.9 284.3 408.1 287.2C416.3 290.1 423.1 293.8 428.5 298.2C433.9 302.7 438.2 307.6 441.4 313.1C444.5 318.5 446.8 323.8 448.3 328.7C449.8 333.7 450.7 338.2 451.1 342.2C451.5 346.2 451.7 349.1 451.7 350.7C451.7 352.4 451.5 355.2 451.1 359.2C450.7 363.2 449.8 367.7 448.3 372.7C446.8 377.7 444.5 382.9 441.4 388.3C438.3 393.7 434 398.7 428.5 403.2C423.1 407.7 416.3 411.3 408.1 414.2C399.9 417.1 390 418.5 378.2 418.5H336.2V282.9ZM348.8 407.2H374.9C383.9 407.2 392.2 406.1 400 403.9C407.8 401.6 414.6 398.2 420.3 393.6C426 389 430.6 383.1 433.9 376.1C437.2 369 438.9 360.6 438.9 350.9C438.9 341.2 437.2 332.8 433.9 325.7C430.5 318.6 426 312.7 420.3 308.2C414.5 303.6 407.8 300.2 400 297.9C392.2 295.7 383.8 294.5 374.9 294.5H348.8V407.2Z" fill="#FCA3BB"/>
<path d="M527.7 282.9H540.8L598 418.7H583.8L569 382.7H497L481.7 418.7H468.4L527.7 282.9ZM533.7 296.7L502 371.2H564.3L533.7 296.7Z" fill="#FCA3BB"/>
<path d="M623.6 282.9H636.3V407.2H699.6V418.7H623.7V282.9H623.6Z" fill="#FCA3BB"/>
<path d="M725.6 282.9H738.3V418.7H725.6V282.9Z" fill="#FCA3BB"/>
<path d="M781.7 282.9H798L880.7 401.8H881.1V282.9H893.8V418.7H877.5L794.8 299.8H794.4V418.7H781.8V282.9H781.7Z" fill="#FCA3BB"/>
<path d="M935.3 282.9H977.3C989.1 282.9 999 284.3 1007.2 287.2C1015.4 290.1 1022.2 293.8 1027.6 298.2C1033 302.7 1037.3 307.6 1040.5 313.1C1043.6 318.5 1045.9 323.8 1047.4 328.7C1048.9 333.7 1049.8 338.2 1050.2 342.2C1050.6 346.2 1050.8 349.1 1050.8 350.7C1050.8 352.4 1050.6 355.2 1050.2 359.2C1049.8 363.2 1048.9 367.7 1047.4 372.7C1045.9 377.7 1043.6 382.9 1040.5 388.3C1037.4 393.7 1033.1 398.7 1027.6 403.2C1022.2 407.7 1015.3 411.3 1007.2 414.2C999 417.1 989 418.5 977.3 418.5H935.3V282.9ZM947.9 407.2H974C982.9 407.2 991.3 406.1 999.1 403.9C1006.9 401.6 1013.7 398.2 1019.4 393.6C1025.2 389 1029.7 383.1 1033 376.1C1036.3 369 1038 360.6 1038 350.9C1038 341.2 1036.3 332.8 1033 325.7C1029.7 318.6 1025.1 312.7 1019.4 308.2C1013.6 303.6 1006.9 300.2 999.1 297.9C991.3 295.7 982.9 294.5 974 294.5H947.9V407.2Z" fill="#FCA3BB"/>
<path d="M1126.9 282.9H1139.9L1197.1 418.7H1182.9L1168.1 382.7H1096.2L1080.9 418.7H1067.7L1126.9 282.9ZM1132.8 296.7L1101.2 371.1H1163.5L1132.8 296.7Z" fill="#FCA3BB"/>
<path d="M705.4 226H696.4C696.4 175.9 655.7 135.2 605.6 135.2C555.5 135.2 514.8 175.9 514.8 226H505.8C505.8 171 550.6 126.2 605.6 126.2C660.7 126.1 705.4 170.9 705.4 226Z" fill="#FCA3BB"/>
</svg>
