<?xml version="1.0" encoding="utf-8"?>
<!-- Generator: Adobe Illustrator 28.2.0, SVG Export Plug-In . SVG Version: 6.00 Build 0)  -->
<svg version="1.1" id="Capa_1" xmlns="http://www.w3.org/2000/svg" xmlns:xlink="http://www.w3.org/1999/xlink" x="0px" y="0px"
	 viewBox="0 0 1200 445" style="enable-background:new 0 0 1200 445;" xml:space="preserve">
<style type="text/css">
	.st0{fill:#F6F0EC;}
</style>
<g>
	<line class="st0" x1="11.4" y1="226" x2="522.3" y2="226"/>
	<path class="st0" d="M522.3,226c0,2.5-2.7,4.5-5.9,4.5H17.2c-3.2,0-5.9-2-5.9-4.5s2.6-4.5,5.9-4.5h499.2
		C519.7,221.4,522.3,223.5,522.3,226z"/>
	<line class="st0" x1="686.6" y1="226" x2="1197.6" y2="226"/>
	<path class="st0" d="M1197.6,226c0,2.5-2.7,4.5-5.9,4.5H692.5c-3.2,0-5.9-2-5.9-4.5s2.7-4.5,5.9-4.5h499.2
		C1195,221.4,1197.6,223.5,1197.6,226z"/>
	<line class="st0" x1="605.6" y1="12.1" x2="605.6" y2="85.3"/>
	<path class="st0" d="M610.1,79.4c0,3.2-2,5.9-4.5,5.9c-2.5,0-4.5-2.6-4.5-5.9V18c0-3.2,2-5.9,4.5-5.9c2.5,0,4.5,2.7,4.5,5.9V79.4z"
		/>
	<line class="st0" x1="537" y1="53.7" x2="553.8" y2="93.2"/>
	<path class="st0" d="M553.8,93.1c-2.3,1-5.2-0.6-6.4-3.6l-12.3-28.6c-1.3-3-0.4-6.2,1.8-7.2c2.3-1,5.2,0.7,6.5,3.6L555.7,86
		C556.9,88.9,556.1,92.2,553.8,93.1z"/>
	<line class="st0" x1="453.7" y1="73.4" x2="503.2" y2="121.3"/>
	<path class="st0" d="M503.2,121.3c-1.7,1.8-5,1.4-7.4-0.9l-41-39.6c-2.3-2.3-2.8-5.6-1.1-7.3c1.7-1.8,5-1.4,7.4,0.9l41.1,39.7
		C504.4,116.2,504.9,119.5,503.2,121.3z"/>
	<line class="st0" x1="428.9" y1="152.8" x2="464.9" y2="169.7"/>
	<path class="st0" d="M464.9,169.7c-1,2.2-4.3,2.9-7.2,1.6l-25.4-11.9c-2.9-1.4-4.5-4.3-3.4-6.6c1.1-2.2,4.3-3,7.3-1.6l25.4,11.9
		C464.4,164.5,466,167.4,464.9,169.7z"/>
	<line class="st0" x1="673.1" y1="53.7" x2="655.1" y2="93.2"/>
	<path class="st0" d="M661.7,89.7c-1.3,2.9-4.3,4.5-6.5,3.5c-2.2-1-3-4.3-1.6-7.2l13.1-28.7c1.3-3,4.3-4.5,6.5-3.5
		c2.3,1,3,4.3,1.6,7.2L661.7,89.7z"/>
	<line class="st0" x1="759.8" y1="73.4" x2="708" y2="121.3"/>
	<path class="st0" d="M715.4,120.6c-2.4,2.2-5.7,2.5-7.4,0.7c-1.7-1.8-1.1-5.1,1.3-7.3l43.1-39.8c2.4-2.2,5.7-2.5,7.4-0.7
		c1.7,1.8,1.1,5.1-1.3,7.3L715.4,120.6z"/>
	<line class="st0" x1="780.1" y1="152.8" x2="742.9" y2="169.7"/>
	<path class="st0" d="M750.1,171.3c-3,1.3-6.2,0.6-7.2-1.7c-1-2.3,0.6-5.2,3.5-6.5l26.4-12c2.9-1.3,6.2-0.6,7.2,1.7
		c1,2.3-0.5,5.2-3.5,6.5L750.1,171.3z"/>
	<path class="st0" d="M7.6,350.8c0-10.4,1.7-19.9,5.2-28.6c3.5-8.7,8.2-16.2,14.4-22.5c6.1-6.3,13.5-11.3,22.1-14.9
		c8.6-3.6,18.1-5.4,28.5-5.4c10.4,0,19.8,1.8,28.5,5.4c8.6,3.6,16,8.5,22.1,14.9c6.1,6.3,10.9,13.8,14.4,22.5
		c3.4,8.7,5.2,18.2,5.2,28.6c0,10.4-1.7,19.9-5.2,28.7c-3.5,8.8-8.3,16.3-14.4,22.6c-6.1,6.3-13.5,11.3-22.1,14.8
		c-8.6,3.5-18.1,5.3-28.5,5.3c-10.3,0-19.8-1.8-28.5-5.3c-8.6-3.5-16-8.4-22.1-14.8c-6.1-6.3-10.9-13.9-14.4-22.6
		C9.3,370.8,7.6,361.2,7.6,350.8z M20.3,350.8c0,8.4,1.3,16.3,4,23.6c2.7,7.3,6.5,13.6,11.5,19c5,5.4,11,9.6,18.1,12.6
		c7.1,3.1,15.1,4.6,23.9,4.6c8.8,0,16.8-1.5,23.9-4.6c7.1-3.1,13.1-7.3,18.1-12.6c5-5.4,8.8-11.7,11.5-19c2.7-7.3,4-15.2,4-23.6
		c0-8.4-1.3-16.3-4-23.6c-2.7-7.3-6.5-13.6-11.5-19c-5-5.4-11-9.6-18.1-12.7c-7.1-3.1-15.1-4.6-23.9-4.6c-8.8,0-16.8,1.5-23.9,4.6
		c-7.1,3.1-13.2,7.3-18.1,12.7c-5,5.4-8.8,11.7-11.5,19C21.6,334.5,20.3,342.4,20.3,350.8z"/>
	<path class="st0" d="M182.5,282.9h16.3l82.6,118.9h0.4V282.9h12.7v135.8h-16.3l-82.6-118.9h-0.4v118.9h-12.7V282.9z"/>
	<path class="st0" d="M336.2,282.9h42c11.8,0,21.7,1.4,29.9,4.3c8.2,2.9,15,6.6,20.4,11c5.4,4.5,9.7,9.4,12.9,14.9
		c3.1,5.4,5.4,10.7,6.9,15.6c1.5,5,2.4,9.5,2.8,13.5c0.4,4,0.6,6.9,0.6,8.5c0,1.7-0.2,4.5-0.6,8.5c-0.4,4-1.3,8.5-2.8,13.5
		c-1.5,5-3.8,10.2-6.9,15.6c-3.1,5.4-7.4,10.4-12.9,14.9c-5.4,4.5-12.2,8.1-20.4,11c-8.2,2.9-18.1,4.3-29.9,4.3h-42V282.9z
		 M348.8,407.2h26.1c9,0,17.3-1.1,25.1-3.3c7.8-2.3,14.6-5.7,20.3-10.3c5.7-4.6,10.3-10.5,13.6-17.5c3.3-7.1,5-15.5,5-25.2
		c0-9.7-1.7-18.1-5-25.2c-3.4-7.1-7.9-13-13.6-17.5c-5.8-4.6-12.5-8-20.3-10.3c-7.8-2.2-16.2-3.4-25.1-3.4h-26.1V407.2z"/>
	<path class="st0" d="M527.7,282.9h13.1l57.2,135.8h-14.2l-14.8-36H497l-15.3,36h-13.3L527.7,282.9z M533.7,296.7L502,371.2h62.3
		L533.7,296.7z"/>
	<path class="st0" d="M623.6,282.9h12.7v124.3h63.3v11.5h-75.9V282.9z"/>
	<path class="st0" d="M725.6,282.9h12.7v135.8h-12.7V282.9z"/>
	<path class="st0" d="M781.7,282.9H798l82.7,118.9h0.4V282.9h12.7v135.8h-16.3l-82.7-118.9h-0.4v118.9h-12.6V282.9z"/>
	<path class="st0" d="M935.3,282.9h42c11.8,0,21.7,1.4,29.9,4.3c8.2,2.9,15,6.6,20.4,11c5.4,4.5,9.7,9.4,12.9,14.9
		c3.1,5.4,5.4,10.7,6.9,15.6c1.5,5,2.4,9.5,2.8,13.5c0.4,4,0.6,6.9,0.6,8.5c0,1.7-0.2,4.5-0.6,8.5c-0.4,4-1.3,8.5-2.8,13.5
		c-1.5,5-3.8,10.2-6.9,15.6c-3.1,5.4-7.4,10.4-12.9,14.9c-5.4,4.5-12.3,8.1-20.4,11c-8.2,2.9-18.2,4.3-29.9,4.3h-42V282.9z
		 M947.9,407.2H974c8.9,0,17.3-1.1,25.1-3.3c7.8-2.3,14.6-5.7,20.3-10.3c5.8-4.6,10.3-10.5,13.6-17.5c3.3-7.1,5-15.5,5-25.2
		c0-9.7-1.7-18.1-5-25.2c-3.3-7.1-7.9-13-13.6-17.5c-5.8-4.6-12.5-8-20.3-10.3c-7.8-2.2-16.2-3.4-25.1-3.4h-26.1V407.2z"/>
	<path class="st0" d="M1126.9,282.9h13l57.2,135.8h-14.2l-14.8-36h-71.9l-15.3,36h-13.2L1126.9,282.9z M1132.8,296.7l-31.6,74.4
		h62.3L1132.8,296.7z"/>
	<path class="st0" d="M705.4,226h-9c0-50.1-40.7-90.8-90.8-90.8c-50.1,0-90.8,40.7-90.8,90.8h-9c0-55,44.8-99.8,99.8-99.8
		C660.7,126.1,705.4,170.9,705.4,226z"/>
</g>
</svg>
